<?xml version="1.0" ?><svg height="36" id="svg4488" version="1.1" width="36" xmlns="http://www.w3.org/2000/svg" xmlns:cc="http://creativecommons.org/ns#" xmlns:dc="http://purl.org/dc/elements/1.1/" xmlns:inkscape="http://www.inkscape.org/namespaces/inkscape" xmlns:rdf="http://www.w3.org/1999/02/22-rdf-syntax-ns#" xmlns:sodipodi="http://sodipodi.sourceforge.net/DTD/sodipodi-0.dtd" xmlns:svg="http://www.w3.org/2000/svg"><defs id="defs4490"/><g id="layer1" transform="translate(0,-1016.3622)"><path d="m 10,1018.362 0,3 16,0 0,-3 -16,0 z m 13.49219,1 1,0 c 0.67616,-0.01 0.67616,1.01 0,1 l -1,0 c -0.67616,0.01 -0.67616,-1.01 0,-1 z m -4.02734,0 c 0.0117,-4e-4 0.0234,-4e-4 0.0351,0 0.27614,0 0.5,0.2239 0.5,0.5 0,0.2761 -0.22386,0.5 -0.5,0.5 -0.27614,0 -0.5,-0.2239 -0.5,-0.5 -6.5e-4,-0.263 0.20252,-0.4815 0.46485,-0.5 z m 2,0 c 0.0117,-4e-4 0.0234,-4e-4 0.0351,0 0.27614,0 0.5,0.2239 0.5,0.5 0,0.2761 -0.22386,0.5 -0.5,0.5 -0.27614,0 -0.5,-0.2239 -0.5,-0.5 -6.5e-4,-0.263 0.20252,-0.4815 0.46485,-0.5 z M 10,1022.3621 l 0,19.0001 7.5,0 0,-19.0001 -7.5,0 z m 8.5,0 0,19.0001 7.5,0 0,-19.0001 -7.5,0 z m -2.99218,6.0019 c 0.27535,0 0.49218,0.014 0.49218,0.014 l 0,4.9922 c 0,0 -0.24761,0.012 -0.5,0.012 -0.25239,0 -0.505,-0.1678 -0.5,-0.5059 l 0,-4 c -0.003,-0.2815 0.22636,-0.5098 0.50782,-0.5058 l 0,0 0,0 z m 4.98437,0 0,0.01 c 0.28146,0 0.51081,0.2245 0.50781,0.506 l 0,4 c 0.005,0.3381 -0.24761,0.5057 -0.5,0.5057 -0.25239,0 -0.5,-0.012 -0.5,-0.012 l 0,-4.9922 c 0,0 0.21684,-0.014 0.49219,-0.014 z M 10,1042.3622 l 0,5 16,0 0,-5 -16,0 z m 5.9961,1.0018 3.99218,0 c 0,0 0.0117,0.2476 0.0117,0.5 0,0.2525 -0.16971,0.5051 -0.50781,0.5 l -3,0 c -0.2815,0 -0.50986,-0.2263 -0.50586,-0.5078 l -0.004,0 c 0,-0.2754 0.0137,-0.4922 0.0137,-0.4922 z m -4.4961,4.9982 0,1 13,0 0,-1 -13,0 z" id="rect4345" style="font-size:medium;font-style:normal;font-variant:normal;font-weight:normal;font-stretch:normal;text-indent:0;text-align:start;text-decoration:none;line-height:normal;letter-spacing:normal;word-spacing:normal;text-transform:none;direction:ltr;block-progression:tb;writing-mode:lr-tb;text-anchor:start;baseline-shift:baseline;color:#000000;fill:#000000;fill-opacity:1;fill-rule:nonzero;stroke:none;visibility:visible;display:inline;overflow:visible;enable-background:accumulate;font-family:sans-serif"/></g></svg>